<svg width="173" height="56" viewBox="0 0 173 56" fill="none" xmlns="http://www.w3.org/2000/svg">
<path fill-rule="evenodd" clip-rule="evenodd" d="M35.2352 37.2962L36.2334 36.011C36.4672 35.7054 36.5121 35.301 36.3413 34.9595L23.1318 8.54598C22.7631 7.81801 21.72 7.81801 21.3513 8.54598L8.10585 35.0134C7.935 35.3549 7.97097 35.7684 8.21376 36.0649L9.21189 37.3501C9.66149 37.9253 10.5607 37.8354 10.8844 37.1883L15.2456 28.4707C15.6143 27.7427 16.6574 27.7427 17.0261 28.4707L20.0834 34.591C20.2273 34.8696 20.2273 35.2022 20.0834 35.4808L15.5424 44.5579C15.3715 44.8994 15.4075 45.3128 15.6503 45.6094L17.4038 47.8652L17.6735 48L21.3423 40.6574C21.711 39.9294 22.7541 39.9294 23.1228 40.6574L26.7916 48L26.9534 47.9191L28.7968 45.5555C29.0306 45.2499 29.0756 44.8455 28.9047 44.504L24.3907 35.4718C24.2468 35.1932 24.2468 34.8606 24.3907 34.582L27.457 28.4527C27.8257 27.7248 28.8688 27.7248 29.2374 28.4527L33.5717 37.1164C33.8954 37.7725 34.7946 37.8624 35.2442 37.2782L35.2352 37.2962ZM21.3423 29.3964L18.276 23.2761C18.1321 22.9975 18.1321 22.6649 18.276 22.3863L21.3423 16.266C21.711 15.5381 22.7541 15.5381 23.1228 16.266L26.1891 22.3863C26.333 22.6649 26.333 22.9975 26.1891 23.2761L23.1228 29.3964C22.7541 30.1244 21.711 30.1244 21.3423 29.3964ZM68.3822 37.7719C68.2062 37.7719 68.0487 37.67 67.9746 37.5126L65.7423 32.6775H56.0722L53.8399 37.5126C53.7658 37.67 53.6084 37.7719 53.4324 37.7719H51.1075C50.9593 37.7719 50.8111 37.6978 50.737 37.5681C50.6536 37.4385 50.6444 37.281 50.7092 37.142L59.3234 18.4687C59.3975 18.3112 59.555 18.2094 59.7309 18.2094H62.0558C62.2318 18.2094 62.3893 18.3112 62.4634 18.4687L71.0498 37.142C71.1146 37.281 71.1054 37.4385 71.022 37.5681C70.9387 37.6978 70.7997 37.7719 70.6515 37.7719H68.3822ZM64.4363 29.8431L60.9165 22.2293L57.3968 29.8431H64.4363ZM72.8002 37.3274C72.8002 37.5775 72.9947 37.772 73.2448 37.772H73.2541H75.3845C75.6346 37.772 75.8291 37.5775 75.8291 37.3274V33.539C75.8291 29.0652 78.0058 26.2772 81.5163 26.2772C81.7664 26.2772 81.9609 26.0827 81.9609 25.8326V23.591C81.9609 23.3409 81.7664 23.1464 81.5163 23.1464C79.0803 23.1464 77.0332 24.3691 75.7087 26.555L75.5327 23.9615C75.5142 23.73 75.3196 23.5447 75.0881 23.5447H73.2448C72.9947 23.5447 72.8002 23.7392 72.8002 23.9893V37.3274ZM93.1875 38.1792C88.723 38.1792 86.5555 35.8636 86.5555 31.0933V26.4435H84.2028C83.9527 26.4435 83.7582 26.249 83.7582 25.9989V25.0912C83.7582 24.9708 83.8045 24.8596 83.8879 24.7763L87.9449 20.6915C88.0283 20.6081 88.1394 20.5618 88.2598 20.5618H89.1398C89.3899 20.5618 89.5844 20.7563 89.5844 21.0064V23.5536H93.1968C93.4469 23.5536 93.6414 23.7481 93.6414 23.9982V25.9989C93.6414 26.249 93.4469 26.4435 93.1968 26.4435H89.5844V31.0933C89.5844 34.0574 90.6311 35.2615 93.1968 35.2615C93.4469 35.2615 93.6414 35.456 93.6414 35.7061V37.7346C93.6414 37.9847 93.4469 38.1792 93.1968 38.1792H93.1875ZM98.1611 37.3274C98.1611 37.5775 98.3556 37.772 98.6057 37.772H100.736C100.986 37.772 101.181 37.5775 101.181 37.3274V26.4346H104.923C105.173 26.4346 105.367 26.2401 105.367 25.99V23.9893C105.367 23.7392 105.173 23.5447 104.923 23.5447H101.19C101.338 21.4698 102.57 20.4602 104.923 20.4602C105.173 20.4602 105.367 20.2657 105.367 20.0156V18.2557C105.367 18.0056 105.173 17.8111 104.923 17.8111C100.792 17.8111 98.3556 19.8952 98.1703 23.5447H95.7528C95.5027 23.5447 95.3082 23.7392 95.3082 23.9893V25.99C95.3082 26.2401 95.5027 26.4346 95.7528 26.4346H98.1611V37.3274ZM113.833 38.1796C109.915 38.1796 106.961 34.9655 106.961 30.6955C106.961 26.4254 109.915 23.1557 113.833 23.1557C115.816 23.1557 117.548 23.9894 118.752 25.4806L118.919 23.9616C118.946 23.7393 119.132 23.5633 119.363 23.5633H121.206C121.456 23.5633 121.651 23.7578 121.651 24.0079V37.346C121.651 37.5961 121.456 37.7906 121.206 37.7906H119.363C119.132 37.7906 118.946 37.6146 118.919 37.3923L118.77 35.8825C117.566 37.3645 115.825 38.1889 113.833 38.1889V38.1796ZM114.389 25.9623C111.796 25.9623 109.98 27.8982 109.98 30.6677C109.98 33.4372 111.833 35.3453 114.389 35.3453C116.946 35.3453 118.613 33.465 118.613 30.6677C118.613 27.8704 116.872 25.9623 114.389 25.9623ZM124.374 30.6955C124.374 34.9655 127.57 38.1796 131.803 38.1796C135.35 38.1796 138.157 36.1048 139.111 32.761C139.148 32.6314 139.12 32.4832 139.037 32.372C138.954 32.2608 138.824 32.196 138.685 32.196H136.471C136.286 32.196 136.119 32.3164 136.054 32.4924C135.406 34.2523 133.776 35.3453 131.803 35.3453C129.246 35.3453 127.394 33.3909 127.394 30.6677C127.394 27.9445 129.246 25.9623 131.803 25.9623C133.729 25.9623 135.341 27.0553 136.027 28.8244C136.091 29.0004 136.258 29.1116 136.443 29.1116H138.657C138.796 29.1116 138.926 29.0467 139.009 28.9356C139.092 28.8244 139.12 28.6762 139.083 28.5466C138.129 25.2213 135.341 23.1557 131.803 23.1557C127.57 23.1557 124.374 26.4254 124.374 30.6955ZM149.837 38.1792C145.372 38.1792 143.205 35.8636 143.205 31.0933V26.4435H140.852C140.602 26.4435 140.408 26.249 140.408 25.9989V25.0912C140.408 24.9708 140.454 24.8596 140.537 24.7763L144.594 20.6915C144.678 20.6081 144.789 20.5618 144.909 20.5618H145.789C146.039 20.5618 146.234 20.7563 146.234 21.0064V23.5536H149.846C150.096 23.5536 150.291 23.7481 150.291 23.9982V25.9989C150.291 26.249 150.096 26.4435 149.846 26.4435H146.234V31.0933C146.234 34.0574 147.281 35.2615 149.846 35.2615C150.096 35.2615 150.291 35.456 150.291 35.7061V37.7346C150.291 37.9847 150.096 38.1792 149.846 38.1792H149.837ZM152.218 33.6224C152.551 36.4753 154.988 38.1796 158.739 38.1796L158.748 38.1704C162.046 38.1704 164.445 36.3271 164.445 33.7799C164.445 30.2644 161.423 29.7704 158.989 29.3724L158.98 29.3709C156.877 29.0282 155.59 28.7503 155.59 27.4814C155.59 26.4625 156.794 25.6288 158.266 25.6288C160.193 25.6288 161.351 26.4347 161.453 27.8333C161.471 28.0742 161.666 28.2502 161.897 28.2502H163.87C163.991 28.2502 164.111 28.2038 164.194 28.1112C164.287 28.0279 164.324 27.8982 164.315 27.7778C164.074 24.8878 161.833 23.1557 158.294 23.1557C155.071 23.1557 152.644 25.0268 152.644 27.5184C152.644 30.7683 155.571 31.2942 157.938 31.7195L157.961 31.7236C160.175 32.1127 161.527 32.4276 161.527 33.8077C161.527 34.8451 160.313 35.6602 158.767 35.6602C156.608 35.6602 155.386 34.9285 155.126 33.4928C155.089 33.2797 154.904 33.1223 154.691 33.1223H152.663C152.533 33.1223 152.413 33.1778 152.329 33.2705C152.246 33.3724 152.199 33.4928 152.218 33.6224Z" fill="#6E3694"/>
<path fill-rule="evenodd" clip-rule="evenodd" d="M35.2352 37.2962L36.2334 36.011C36.4672 35.7054 36.5121 35.301 36.3413 34.9595L23.1318 8.54598C22.7631 7.81801 21.72 7.81801 21.3513 8.54598L8.10585 35.0134C7.935 35.3549 7.97097 35.7684 8.21376 36.0649L9.21189 37.3501C9.66149 37.9253 10.5607 37.8354 10.8844 37.1883L15.2456 28.4707C15.6143 27.7427 16.6574 27.7427 17.0261 28.4707L20.0834 34.591C20.2273 34.8696 20.2273 35.2022 20.0834 35.4808L15.5424 44.5579C15.3715 44.8994 15.4075 45.3128 15.6503 45.6094L17.4038 47.8652L17.6735 48L21.3423 40.6574C21.711 39.9294 22.7541 39.9294 23.1228 40.6574L26.7916 48L26.9534 47.9191L28.7968 45.5555C29.0306 45.2499 29.0756 44.8455 28.9047 44.504L24.3907 35.4718C24.2468 35.1932 24.2468 34.8606 24.3907 34.582L27.457 28.4527C27.8257 27.7248 28.8688 27.7248 29.2374 28.4527L33.5717 37.1164C33.8954 37.7725 34.7946 37.8624 35.2442 37.2782L35.2352 37.2962ZM21.3423 29.3964L18.276 23.2761C18.1321 22.9975 18.1321 22.6649 18.276 22.3863L21.3423 16.266C21.711 15.5381 22.7541 15.5381 23.1228 16.266L26.1891 22.3863C26.333 22.6649 26.333 22.9975 26.1891 23.2761L23.1228 29.3964C22.7541 30.1244 21.711 30.1244 21.3423 29.3964ZM68.3822 37.7719C68.2062 37.7719 68.0487 37.67 67.9746 37.5126L65.7423 32.6775H56.0722L53.8399 37.5126C53.7658 37.67 53.6084 37.7719 53.4324 37.7719H51.1075C50.9593 37.7719 50.8111 37.6978 50.737 37.5681C50.6536 37.4385 50.6444 37.281 50.7092 37.142L59.3234 18.4687C59.3975 18.3112 59.555 18.2094 59.7309 18.2094H62.0558C62.2318 18.2094 62.3893 18.3112 62.4634 18.4687L71.0498 37.142C71.1146 37.281 71.1054 37.4385 71.022 37.5681C70.9387 37.6978 70.7997 37.7719 70.6515 37.7719H68.3822ZM64.4363 29.8431L60.9165 22.2293L57.3968 29.8431H64.4363ZM72.8002 37.3274C72.8002 37.5775 72.9947 37.772 73.2448 37.772H73.2541H75.3845C75.6346 37.772 75.8291 37.5775 75.8291 37.3274V33.539C75.8291 29.0652 78.0058 26.2772 81.5163 26.2772C81.7664 26.2772 81.9609 26.0827 81.9609 25.8326V23.591C81.9609 23.3409 81.7664 23.1464 81.5163 23.1464C79.0803 23.1464 77.0332 24.3691 75.7087 26.555L75.5327 23.9615C75.5142 23.73 75.3196 23.5447 75.0881 23.5447H73.2448C72.9947 23.5447 72.8002 23.7392 72.8002 23.9893V37.3274ZM93.1875 38.1792C88.723 38.1792 86.5555 35.8636 86.5555 31.0933V26.4435H84.2028C83.9527 26.4435 83.7582 26.249 83.7582 25.9989V25.0912C83.7582 24.9708 83.8045 24.8596 83.8879 24.7763L87.9449 20.6915C88.0283 20.6081 88.1394 20.5618 88.2598 20.5618H89.1398C89.3899 20.5618 89.5844 20.7563 89.5844 21.0064V23.5536H93.1968C93.4469 23.5536 93.6414 23.7481 93.6414 23.9982V25.9989C93.6414 26.249 93.4469 26.4435 93.1968 26.4435H89.5844V31.0933C89.5844 34.0574 90.6311 35.2615 93.1968 35.2615C93.4469 35.2615 93.6414 35.456 93.6414 35.7061V37.7346C93.6414 37.9847 93.4469 38.1792 93.1968 38.1792H93.1875ZM98.1611 37.3274C98.1611 37.5775 98.3556 37.772 98.6057 37.772H100.736C100.986 37.772 101.181 37.5775 101.181 37.3274V26.4346H104.923C105.173 26.4346 105.367 26.2401 105.367 25.99V23.9893C105.367 23.7392 105.173 23.5447 104.923 23.5447H101.19C101.338 21.4698 102.57 20.4602 104.923 20.4602C105.173 20.4602 105.367 20.2657 105.367 20.0156V18.2557C105.367 18.0056 105.173 17.8111 104.923 17.8111C100.792 17.8111 98.3556 19.8952 98.1703 23.5447H95.7528C95.5027 23.5447 95.3082 23.7392 95.3082 23.9893V25.99C95.3082 26.2401 95.5027 26.4346 95.7528 26.4346H98.1611V37.3274ZM113.833 38.1796C109.915 38.1796 106.961 34.9655 106.961 30.6955C106.961 26.4254 109.915 23.1557 113.833 23.1557C115.816 23.1557 117.548 23.9894 118.752 25.4806L118.919 23.9616C118.946 23.7393 119.132 23.5633 119.363 23.5633H121.206C121.456 23.5633 121.651 23.7578 121.651 24.0079V37.346C121.651 37.5961 121.456 37.7906 121.206 37.7906H119.363C119.132 37.7906 118.946 37.6146 118.919 37.3923L118.77 35.8825C117.566 37.3645 115.825 38.1889 113.833 38.1889V38.1796ZM114.389 25.9623C111.796 25.9623 109.98 27.8982 109.98 30.6677C109.98 33.4372 111.833 35.3453 114.389 35.3453C116.946 35.3453 118.613 33.465 118.613 30.6677C118.613 27.8704 116.872 25.9623 114.389 25.9623ZM124.374 30.6955C124.374 34.9655 127.57 38.1796 131.803 38.1796C135.35 38.1796 138.157 36.1048 139.111 32.761C139.148 32.6314 139.12 32.4832 139.037 32.372C138.954 32.2608 138.824 32.196 138.685 32.196H136.471C136.286 32.196 136.119 32.3164 136.054 32.4924C135.406 34.2523 133.776 35.3453 131.803 35.3453C129.246 35.3453 127.394 33.3909 127.394 30.6677C127.394 27.9445 129.246 25.9623 131.803 25.9623C133.729 25.9623 135.341 27.0553 136.027 28.8244C136.091 29.0004 136.258 29.1116 136.443 29.1116H138.657C138.796 29.1116 138.926 29.0467 139.009 28.9356C139.092 28.8244 139.12 28.6762 139.083 28.5466C138.129 25.2213 135.341 23.1557 131.803 23.1557C127.57 23.1557 124.374 26.4254 124.374 30.6955ZM149.837 38.1792C145.372 38.1792 143.205 35.8636 143.205 31.0933V26.4435H140.852C140.602 26.4435 140.408 26.249 140.408 25.9989V25.0912C140.408 24.9708 140.454 24.8596 140.537 24.7763L144.594 20.6915C144.678 20.6081 144.789 20.5618 144.909 20.5618H145.789C146.039 20.5618 146.234 20.7563 146.234 21.0064V23.5536H149.846C150.096 23.5536 150.291 23.7481 150.291 23.9982V25.9989C150.291 26.249 150.096 26.4435 149.846 26.4435H146.234V31.0933C146.234 34.0574 147.281 35.2615 149.846 35.2615C150.096 35.2615 150.291 35.456 150.291 35.7061V37.7346C150.291 37.9847 150.096 38.1792 149.846 38.1792H149.837ZM152.218 33.6224C152.551 36.4753 154.988 38.1796 158.739 38.1796L158.748 38.1704C162.046 38.1704 164.445 36.3271 164.445 33.7799C164.445 30.2644 161.423 29.7704 158.989 29.3724L158.98 29.3709C156.877 29.0282 155.59 28.7503 155.59 27.4814C155.59 26.4625 156.794 25.6288 158.266 25.6288C160.193 25.6288 161.351 26.4347 161.453 27.8333C161.471 28.0742 161.666 28.2502 161.897 28.2502H163.87C163.991 28.2502 164.111 28.2038 164.194 28.1112C164.287 28.0279 164.324 27.8982 164.315 27.7778C164.074 24.8878 161.833 23.1557 158.294 23.1557C155.071 23.1557 152.644 25.0268 152.644 27.5184C152.644 30.7683 155.571 31.2942 157.938 31.7195L157.961 31.7236C160.175 32.1127 161.527 32.4276 161.527 33.8077C161.527 34.8451 160.313 35.6602 158.767 35.6602C156.608 35.6602 155.386 34.9285 155.126 33.4928C155.089 33.2797 154.904 33.1223 154.691 33.1223H152.663C152.533 33.1223 152.413 33.1778 152.329 33.2705C152.246 33.3724 152.199 33.4928 152.218 33.6224Z" fill="white"/>
</svg>
